<?xml version="1.0" encoding="iso-8859-1"?>
<!-- Generator: Adobe Illustrator 19.0.0, SVG Export Plug-In . SVG Version: 6.00 Build 0)  -->
<svg xmlns="http://www.w3.org/2000/svg" xmlns:xlink="http://www.w3.org/1999/xlink" version="1.1" id="Layer_1" x="0px" y="0px" viewBox="0 0 512 512" style="enable-background:new 0 0 512 512;" xml:space="preserve" width="512" height="512">
<g>
	<path style="fill:#C8E7F9;" d="M273.798,369.175l-37.588,13.681L265.016,462H128c-11.046,0-20,8.954-20,20v0   c0,11.046,8.954,20,20,20h160c11.046,0,20-8.954,20-20v-20L273.798,369.175z"/>
	<path style="fill:#81B3E6;" d="M464,50.964C464,28.34,445.66,10,423.036,10l0,0c-22.624,0-40.964,18.34-40.964,40.964v48.974   c-0.014,0.024-0.03,0.048-0.044,0.072L250.184,282H108c-33.137,0-60,26.863-60,60v0c0,33.137,26.863,60,60,60h200l156-301   c0-0.34-0.016-0.667-0.024-1H464V50.964z"/>
	<path style="fill:#C8E7F9;" d="M368,232H168c-11.046,0-20-8.954-20-20v0c0-11.046,8.954-20,20-20h200V232z"/>
	<path style="fill:#93684C;" d="M308,402H158c-11.046,0-20-8.954-20-20v-20c0-22.091,17.909-40,40-40h130V402z"/>
	<polygon style="fill:#93684C;" points="405,216 308,402 277.452,322.836 367.452,191.664  "/>
	<g>
		<path d="M502,492c-5.51,0-10,4.49-10,10c0,5.51,4.49,10,10,10c5.51,0,10-4.49,10-10C512,496.49,507.51,492,502,492z"/>
		<path d="M423.036,0c-28.102,0-50.964,22.862-50.964,50.964v45.744l-61.547,84.956H168c-16.542,0-30,13.458-30,30s13.458,30,30,30    h99.058L245.081,272H108c-38.598,0-70,31.402-70,70s31.402,70,70,70h128.176l14.559,40H128c-16.542,0-30,13.458-30,30    c0,3.506,0.61,6.87,1.72,10H10c-5.51,0-10,4.49-10,10c0,5.51,4.49,10,10,10h452c5.51,0,10-4.49,10-10c0-5.51-4.49-10-10-10H316.28    c1.11-3.13,1.72-6.494,1.72-10v-20c0-1.18-0.209-2.35-0.617-3.458L300.234,412H308l0,0c0.001,0,0.001,0,0.001,0    c3.71,0,7.135-2.06,8.865-5.376l156.012-301.022c0.737-1.422,1.122-3,1.122-4.602c0-0.202-0.003-0.4-0.008-0.598    c0.005-0.134,0.008-0.268,0.008-0.402V50.964C474,22.862,451.138,0,423.036,0z M168,221.663c-5.514,0-10-4.486-10-10    s4.486-10,10-10h180.464l-13.722,20H168z M129.72,392H108c-27.57,0-50-22.43-50-50s22.43-50,50-50h142.185    c3.206,0,6.217-1.537,8.098-4.133l33.472-46.203h29.264L272.76,312H178c-27.57,0-50,22.43-50,50v20    C128,385.506,128.61,388.87,129.72,392z M158,392c-5.514,0-10-4.486-10-10v-20c0-16.542,13.458-30,30-30h92.27l7.718,20H218    c-5.51,0-10,4.49-10,10c0,5.51,4.49,10,10,10h67.705l7.718,20H158z M128,492c-5.514,0-10-4.486-10-10s4.486-10,10-10h137.017    c3.263,0,6.32-1.592,8.191-4.264c1.872-2.673,2.321-6.09,1.206-9.156L257.46,412h21.46L298,463.784V482c0,5.514-4.486,10-10,10    H128z M309.364,377.758l-20.687-53.607l81.509-118.797l21.739,14.09L309.364,377.758z M454,98.563l-52.895,102.997l-28.214-18.287    c-1.485-0.963-3.133-1.474-4.785-1.58c-0.034-0.017-0.069-0.029-0.106-0.029h-32.778l54.904-75.787    c0.154-0.212,0.299-0.431,0.436-0.655c0.054-0.086,0.115-0.188,0.16-0.267c0.884-1.524,1.35-3.255,1.35-5.017V50.964    c0-17.074,13.89-30.964,30.964-30.964S454,33.89,454,50.964V98.563z"/>
		<path d="M178,352c-5.51,0-10,4.49-10,10c0,5.51,4.49,10,10,10c5.51,0,10-4.49,10-10C188,356.49,183.51,352,178,352z"/>
	</g>
</g>















</svg>
